<mxfile host="app.diagrams.net" modified="2024-06-25T02:55:50.459Z" agent="Mozilla/5.0 (Windows NT 10.0; Win64; x64) AppleWebKit/537.36 (KHTML, like Gecko) Chrome/126.0.0.0 Safari/537.36" etag="uIHcM2zc3ck5eayFh-QT" version="24.6.2" type="github">
  <diagram name="Página-1" id="n-J8f_JWNlP_-7bDTQTR">
    <mxGraphModel dx="909" dy="743" grid="1" gridSize="10" guides="1" tooltips="1" connect="1" arrows="1" fold="1" page="1" pageScale="1" pageWidth="827" pageHeight="1169" math="0" shadow="0">
      <root>
        <mxCell id="0" />
        <mxCell id="1" parent="0" />
        <mxCell id="i9Z3qjJWcCSKMzkNTpMQ-1" value="&lt;h3&gt;encerrar = &#39;n&#39;&lt;/h3&gt;" style="strokeWidth=2;html=1;shape=mxgraph.flowchart.decision;whiteSpace=wrap;" vertex="1" parent="1">
          <mxGeometry x="364" y="310" width="100" height="80" as="geometry" />
        </mxCell>
        <mxCell id="i9Z3qjJWcCSKMzkNTpMQ-2" value="&lt;h2&gt;saldo&lt;/h2&gt;" style="html=1;strokeWidth=2;shape=manualInput;rounded=1;size=26;arcSize=11;whiteSpace=wrap;" vertex="1" parent="1">
          <mxGeometry x="364" y="140" width="100" height="60" as="geometry" />
        </mxCell>
        <mxCell id="i9Z3qjJWcCSKMzkNTpMQ-3" value="&lt;h3&gt;&quot;Saldo inicial: &quot; +&lt;br&gt;saldo&lt;/h3&gt;" style="strokeWidth=2;html=1;shape=mxgraph.flowchart.display;whiteSpace=wrap;" vertex="1" parent="1">
          <mxGeometry x="510" y="140" width="150" height="70" as="geometry" />
        </mxCell>
        <mxCell id="i9Z3qjJWcCSKMzkNTpMQ-5" value="&lt;h2&gt;Inicio&lt;/h2&gt;" style="strokeWidth=2;html=1;shape=mxgraph.flowchart.terminator;whiteSpace=wrap;direction=west;" vertex="1" parent="1">
          <mxGeometry x="364" y="90" width="100" height="30" as="geometry" />
        </mxCell>
        <mxCell id="i9Z3qjJWcCSKMzkNTpMQ-18" value="&lt;h2&gt;encerrar = &#39;n&#39;&lt;/h2&gt;" style="rounded=1;whiteSpace=wrap;html=1;strokeWidth=2;" vertex="1" parent="1">
          <mxGeometry x="354" y="240" width="120" height="40" as="geometry" />
        </mxCell>
        <mxCell id="i9Z3qjJWcCSKMzkNTpMQ-19" style="edgeStyle=orthogonalEdgeStyle;rounded=0;orthogonalLoop=1;jettySize=auto;html=1;exitX=0.5;exitY=1;exitDx=0;exitDy=0;" edge="1" parent="1" source="i9Z3qjJWcCSKMzkNTpMQ-18" target="i9Z3qjJWcCSKMzkNTpMQ-18">
          <mxGeometry relative="1" as="geometry" />
        </mxCell>
        <mxCell id="i9Z3qjJWcCSKMzkNTpMQ-20" value="&lt;h2&gt;tipo de entrada&lt;/h2&gt;" style="html=1;strokeWidth=2;shape=manualInput;whiteSpace=wrap;rounded=1;size=26;arcSize=11;" vertex="1" parent="1">
          <mxGeometry x="364" y="400" width="100" height="80" as="geometry" />
        </mxCell>
        <mxCell id="i9Z3qjJWcCSKMzkNTpMQ-21" value="&lt;h2&gt;quantidade&lt;/h2&gt;" style="html=1;strokeWidth=2;shape=manualInput;whiteSpace=wrap;rounded=1;size=26;arcSize=11;" vertex="1" parent="1">
          <mxGeometry x="364" y="490" width="100" height="60" as="geometry" />
        </mxCell>
        <mxCell id="i9Z3qjJWcCSKMzkNTpMQ-22" value="&lt;h2&gt;tipo entrada = 1&lt;/h2&gt;" style="strokeWidth=2;html=1;shape=mxgraph.flowchart.decision;whiteSpace=wrap;" vertex="1" parent="1">
          <mxGeometry x="336" y="560" width="156" height="140" as="geometry" />
        </mxCell>
        <mxCell id="i9Z3qjJWcCSKMzkNTpMQ-23" value="&lt;h2&gt;saldo = saldo +&lt;/h2&gt;&lt;h2&gt;quantidade&lt;/h2&gt;" style="rounded=1;whiteSpace=wrap;html=1;strokeWidth=2;" vertex="1" parent="1">
          <mxGeometry x="520" y="590" width="140" height="80" as="geometry" />
        </mxCell>
        <mxCell id="i9Z3qjJWcCSKMzkNTpMQ-24" value="&lt;h2&gt;&quot;entrada: &quot; +&lt;/h2&gt;&lt;h2&gt;quantidade&lt;/h2&gt;" style="strokeWidth=2;html=1;shape=mxgraph.flowchart.display;whiteSpace=wrap;" vertex="1" parent="1">
          <mxGeometry x="677" y="580" width="173" height="90" as="geometry" />
        </mxCell>
        <mxCell id="i9Z3qjJWcCSKMzkNTpMQ-26" value="&lt;h2&gt;saldo &amp;gt;=&lt;/h2&gt;&lt;h2&gt;quantidade&lt;/h2&gt;" style="strokeWidth=2;html=1;shape=mxgraph.flowchart.decision;whiteSpace=wrap;" vertex="1" parent="1">
          <mxGeometry x="511" y="712.5" width="148" height="135" as="geometry" />
        </mxCell>
        <mxCell id="i9Z3qjJWcCSKMzkNTpMQ-28" value="&lt;h2&gt;&quot;Saldo Insuficiente&quot;&lt;/h2&gt;" style="strokeWidth=2;html=1;shape=mxgraph.flowchart.display;whiteSpace=wrap;" vertex="1" parent="1">
          <mxGeometry x="520" y="880" width="150" height="80" as="geometry" />
        </mxCell>
        <mxCell id="i9Z3qjJWcCSKMzkNTpMQ-32" value="&lt;h2&gt;encerrar ? (s/n)&lt;/h2&gt;" style="html=1;strokeWidth=2;shape=manualInput;whiteSpace=wrap;rounded=1;size=26;arcSize=11;" vertex="1" parent="1">
          <mxGeometry x="341.75" y="1060" width="140.5" height="60" as="geometry" />
        </mxCell>
        <mxCell id="i9Z3qjJWcCSKMzkNTpMQ-33" value="&lt;h2&gt;&quot;Sistema encerrado&quot;&lt;/h2&gt;" style="strokeWidth=2;html=1;shape=mxgraph.flowchart.display;whiteSpace=wrap;" vertex="1" parent="1">
          <mxGeometry x="347" y="1150" width="130" height="80" as="geometry" />
        </mxCell>
        <mxCell id="i9Z3qjJWcCSKMzkNTpMQ-34" value="&lt;h2&gt;Fim&lt;/h2&gt;" style="strokeWidth=2;html=1;shape=mxgraph.flowchart.terminator;whiteSpace=wrap;" vertex="1" parent="1">
          <mxGeometry x="364" y="1260" width="100" height="30" as="geometry" />
        </mxCell>
        <mxCell id="i9Z3qjJWcCSKMzkNTpMQ-36" value="&lt;h2&gt;tipo entrada = 2&lt;/h2&gt;" style="strokeWidth=2;html=1;shape=mxgraph.flowchart.decision;whiteSpace=wrap;" vertex="1" parent="1">
          <mxGeometry x="336" y="710" width="156" height="140" as="geometry" />
        </mxCell>
        <mxCell id="i9Z3qjJWcCSKMzkNTpMQ-38" value="&lt;h2&gt;saldo = saldo -&lt;/h2&gt;&lt;h2&gt;quantidade&lt;/h2&gt;" style="rounded=1;whiteSpace=wrap;html=1;strokeWidth=2;" vertex="1" parent="1">
          <mxGeometry x="693.5" y="740" width="140" height="80" as="geometry" />
        </mxCell>
        <mxCell id="i9Z3qjJWcCSKMzkNTpMQ-39" value="&lt;h2&gt;&quot;Saída: &quot; + quantidade&lt;/h2&gt;" style="strokeWidth=2;html=1;shape=mxgraph.flowchart.display;whiteSpace=wrap;" vertex="1" parent="1">
          <mxGeometry x="688.5" y="880" width="150" height="80" as="geometry" />
        </mxCell>
        <mxCell id="i9Z3qjJWcCSKMzkNTpMQ-40" value="&lt;h2&gt;saldo&lt;/h2&gt;" style="strokeWidth=2;html=1;shape=mxgraph.flowchart.display;whiteSpace=wrap;" vertex="1" parent="1">
          <mxGeometry x="347.5" y="970" width="133" height="60" as="geometry" />
        </mxCell>
      </root>
    </mxGraphModel>
  </diagram>
</mxfile>
